<svg width="82" height="28" viewBox="0 0 82 28" fill="none" xmlns="http://www.w3.org/2000/svg">
<path fill-rule="evenodd" clip-rule="evenodd" d="M10.4207 5.8136C10.4207 6.66799 9.72603 7.36059 8.86903 7.36059C8.01204 7.36059 7.31726 6.66799 7.31726 5.8136C7.31726 4.9592 8.01204 4.2666 8.86903 4.2666C9.72603 4.2666 10.4207 4.9592 10.4207 5.8136ZM2.92075 10.4564C3.92056 10.4564 4.7311 9.64834 4.7311 8.65157C4.7311 7.65474 3.92056 6.84667 2.92075 6.84667C1.92088 6.84667 1.11035 7.65474 1.11035 8.65157C1.11035 9.64834 1.92088 10.4564 2.92075 10.4564ZM8.35184 13.033C9.20884 13.033 9.90355 12.3404 9.90355 11.486C9.90355 10.6316 9.20884 9.93902 8.35184 9.93902C7.49484 9.93902 6.80006 10.6316 6.80006 11.486C6.80006 12.3404 7.49484 13.033 8.35184 13.033ZM16.8411 9.77156V15.7849C16.8411 17.6531 15.3221 19.1675 13.4482 19.1675C11.5744 19.1675 10.0553 17.6531 10.0553 15.7849V15.4091H7.03947V15.7849C7.03947 19.3136 9.90873 22.1742 13.4482 22.1742C16.9877 22.1742 19.8569 19.3136 19.8569 15.7849V9.77156H16.8411Z" fill="#FFC107"/>
<path fill-rule="evenodd" clip-rule="evenodd" d="M16.9338 0H25.8872V15.5941C25.8872 22.4457 20.316 28 13.4435 28C6.40685 28 0.772702 22.1793 1.00705 15.1714L4.02127 15.2715C3.84363 20.5841 8.11528 24.9933 13.4435 24.9933C18.6503 24.9933 22.8713 20.7851 22.8713 15.5941V3.0067H16.9338V0Z" fill="#A46F30"/>
<path d="M44.6078 5.54541H47.7442V17.8181C47.7385 18.9431 47.4999 19.9119 47.0283 20.7244C46.5567 21.5312 45.8976 22.1534 45.051 22.5909C44.2101 23.0227 43.23 23.2386 42.1107 23.2386C41.0879 23.2386 40.1675 23.0568 39.3493 22.6931C38.5368 22.3238 37.8919 21.7784 37.4146 21.0568C36.9374 20.3352 36.6987 19.4375 36.6987 18.3636H39.8436C39.8493 18.8352 39.9516 19.2414 40.1504 19.5823C40.355 19.9233 40.6362 20.1846 40.9942 20.3664C41.3521 20.5483 41.7641 20.6392 42.23 20.6392C42.7357 20.6392 43.1646 20.534 43.5169 20.3238C43.8692 20.1079 44.1362 19.7897 44.318 19.3693C44.5055 18.9488 44.6021 18.4318 44.6078 17.8181V5.54541Z" fill="black"/>
<path d="M53.4161 23H50.0411L56.1859 5.54541H60.0894L66.2428 23H62.8678L58.2058 9.12496H58.0695L53.4161 23ZM53.5269 16.1562H62.7314V18.696H53.5269V16.1562Z" fill="black"/>
<path d="M68.2179 23V21.0312L77.1668 8.19598H68.1668V5.54541H81.0872V7.51416L72.1469 20.3494H81.1384V23H68.2179Z" fill="black"/>
</svg>
